<svg width="32" height="32" viewBox="0 0 32 32" fill="none" xmlns="http://www.w3.org/2000/svg">
<path opacity="0.1" d="M0 16C0 7.16344 7.16344 0 16 0C24.8366 0 32 7.16344 32 16C32 24.8366 24.8366 32 16 32C7.16344 32 0 24.8366 0 16Z" fill="white"/>
<path d="M20.2988 14.2H18.749H18.1955V13.6194V11.8194V11.2387H18.749H19.9113C20.2158 11.2387 20.4648 11.0065 20.4648 10.6581V7.58065C20.4648 7.26129 20.2434 7 19.9113 7H17.8911C15.7047 7 14.1826 8.62581 14.1826 11.0355V13.5613V14.1419H13.6291H11.7472C11.3598 14.1419 11 14.4613 11 14.9258V17.0161C11 17.4226 11.3044 17.8 11.7472 17.8H13.5738H14.1273V18.3806V24.2161C14.1273 24.6226 14.4317 25 14.8745 25H17.4759C17.642 25 17.7804 24.9129 17.8911 24.7968C18.0018 24.6806 18.0848 24.4774 18.0848 24.3032V18.4097V17.829H18.666H19.9113C20.2711 17.829 20.5479 17.5968 20.6032 17.2484V17.2194V17.1903L20.9907 15.1871C21.0183 14.9839 20.9907 14.7516 20.8246 14.5194C20.7693 14.3742 20.5202 14.229 20.2988 14.2Z" fill="#CDCED6"/>
</svg>
