<svg width="8" height="15" viewBox="0 0 8 15" fill="none" xmlns="http://www.w3.org/2000/svg">
<path d="M7.36369 5.68421H6.13641H5.6981V5.22581V3.80475V3.34635H6.13641H7.05687C7.29795 3.34635 7.49519 3.16299 7.49519 2.88795V0.458404C7.49519 0.206282 7.31986 0 7.05687 0H5.45702C3.72568 0 2.52031 1.28353 2.52031 3.18591V5.17997V5.63837H2.082H0.591725C0.284905 5.63837 0 5.89049 0 6.25722V7.90747C0 8.22835 0.241073 8.52632 0.591725 8.52632H2.03816H2.47648V8.98472V13.5917C2.47648 13.9126 2.71755 14.2105 3.06821 14.2105H5.12829C5.25978 14.2105 5.36936 14.1418 5.45702 14.0501C5.54469 13.9584 5.61043 13.798 5.61043 13.6604V9.00764V8.54924H6.07066H7.05687C7.34178 8.54924 7.56093 8.36588 7.60477 8.09083V8.06791V8.04499L7.91159 6.4635C7.9335 6.30306 7.91159 6.1197 7.78009 5.93633C7.73626 5.82173 7.53902 5.70713 7.36369 5.68421Z" fill="#DDDDDD"/>
</svg>
