<svg width="15" height="15" viewBox="0 0 15 15" fill="none" xmlns="http://www.w3.org/2000/svg">
<path d="M7.56938 10.4156C9.02158 10.4156 10.1988 9.24198 10.1988 7.79423C10.1988 6.34648 9.02158 5.17285 7.56938 5.17285C6.11718 5.17285 4.93994 6.34648 4.93994 7.79423C4.93994 9.24198 6.11718 10.4156 7.56938 10.4156Z" fill="#DDDDDD"/>
<path d="M10.4252 0.789062H4.66769C2.37827 0.789062 0.519531 2.64211 0.519531 4.92452V10.6192C0.519531 12.9468 2.37827 14.7999 4.66769 14.7999H10.3799C12.7147 14.7999 14.5734 12.9468 14.5734 10.6644V4.92452C14.5734 2.64211 12.7147 0.789062 10.4252 0.789062ZM7.56913 11.2294C5.64239 11.2294 4.12367 9.67012 4.12367 7.79448C4.12367 5.91884 5.66506 4.35957 7.56913 4.35957C9.45054 4.35957 10.9919 5.91884 10.9919 7.79448C10.9919 9.67012 9.47321 11.2294 7.56913 11.2294ZM12.3293 4.67594C12.1026 4.92452 11.7626 5.06011 11.3773 5.06011C11.0373 5.06011 10.6973 4.92452 10.4252 4.67594C10.1759 4.42736 10.0399 4.11099 10.0399 3.72682C10.0399 3.34265 10.1759 3.04887 10.4252 2.7777C10.6746 2.50652 10.9919 2.37093 11.3773 2.37093C11.7173 2.37093 12.08 2.50652 12.3293 2.7551C12.556 3.04887 12.7147 3.38785 12.7147 3.74942C12.692 4.11099 12.556 4.42736 12.3293 4.67594Z" fill="#DDDDDD"/>
<path d="M11.4002 3.18457C11.1055 3.18457 10.8562 3.43315 10.8562 3.72693C10.8562 4.0207 11.1055 4.26928 11.4002 4.26928C11.6949 4.26928 11.9442 4.0207 11.9442 3.72693C11.9442 3.43315 11.7176 3.18457 11.4002 3.18457Z" fill="#DDDDDD"/>
</svg>
