<svg width="32" height="32" viewBox="0 0 32 32" fill="none" xmlns="http://www.w3.org/2000/svg">
<path opacity="0.1" d="M15.8862 31.7723C24.6598 31.7723 31.7723 24.6598 31.7723 15.8862C31.7723 7.11248 24.6598 0 15.8862 0C7.11248 0 0 7.11248 0 15.8862C0 24.6598 7.11248 31.7723 15.8862 31.7723Z" fill="white"/>
<path d="M15.9024 20.1941C17.7363 20.1941 19.2229 18.7075 19.2229 16.8736C19.2229 15.0398 17.7363 13.5532 15.9024 13.5532C14.0686 13.5532 12.582 15.0398 12.582 16.8736C12.582 18.7075 14.0686 20.1941 15.9024 20.1941Z" fill="#CDCED6"/>
<path d="M19.5088 8H12.2382C9.34719 8 7 10.3472 7 13.2382V20.4516C7 23.3999 9.34719 25.7471 12.2382 25.7471H19.4516C22.3999 25.7471 24.7471 23.3999 24.7471 20.5088V13.2382C24.7471 10.3472 22.3999 8 19.5088 8ZM15.9022 21.2244C13.4691 21.2244 11.5513 19.2493 11.5513 16.8735C11.5513 14.4977 13.4977 12.5226 15.9022 12.5226C18.278 12.5226 20.2244 14.4977 20.2244 16.8735C20.2244 19.2493 18.3066 21.2244 15.9022 21.2244ZM21.9133 12.9234C21.627 13.2382 21.1976 13.41 20.711 13.41C20.2817 13.41 19.8523 13.2382 19.5088 12.9234C19.1939 12.6085 19.0222 12.2078 19.0222 11.7212C19.0222 11.2345 19.1939 10.8624 19.5088 10.5189C19.8237 10.1754 20.2244 10.0037 20.711 10.0037C21.1404 10.0037 21.5984 10.1754 21.9133 10.4903C22.1995 10.8624 22.3999 11.2918 22.3999 11.7498C22.3712 12.2078 22.1995 12.6085 21.9133 12.9234Z" fill="#CDCED6"/>
<path d="M20.74 11.0342C20.3678 11.0342 20.053 11.349 20.053 11.7212C20.053 12.0933 20.3678 12.4081 20.74 12.4081C21.1121 12.4081 21.4269 12.0933 21.4269 11.7212C21.4269 11.349 21.1407 11.0342 20.74 11.0342Z" fill="#CDCED6"/>
</svg>
