<svg width="15" height="15" viewBox="0 0 15 15" fill="none" xmlns="http://www.w3.org/2000/svg">
<path d="M14.0037 0.789062H1.78522C1.20779 0.789062 0.74585 1.24747 0.74585 1.82047V13.9682C0.74585 14.5183 1.20779 14.9996 1.78522 14.9996H13.9575C14.5349 14.9996 14.9968 14.5412 14.9968 13.9682V1.79755C15.043 1.24747 14.5811 0.789062 14.0037 0.789062ZM4.97264 12.868H2.87079V6.10655H4.97264V12.868ZM3.91017 5.16682C3.21725 5.16682 2.68602 4.61674 2.68602 3.95205C2.68602 3.28736 3.24035 2.73728 3.91017 2.73728C4.57999 2.73728 5.13432 3.28736 5.13432 3.95205C5.13432 4.61674 4.62618 5.16682 3.91017 5.16682ZM12.9412 12.868H10.8393V9.59042C10.8393 8.81113 10.8162 7.77973 9.73067 7.77973C8.622 7.77973 8.46032 8.65069 8.46032 9.52166V12.868H6.35847V6.10655H8.41413V7.04628H8.43723C8.73749 6.49619 9.40731 5.94611 10.4467 5.94611C12.5947 5.94611 12.9874 7.32132 12.9874 9.20078V12.868H12.9412Z" fill="#DDDDDD"/>
</svg>
