<svg width="35" height="35" viewBox="0 0 35 35" fill="none" xmlns="http://www.w3.org/2000/svg">
<g id="map-marker 1">
<g id="Group">
<path id="Vector" d="M17.5002 0.710938C9.89868 0.710938 3.66431 6.72656 3.66431 14.0547C3.66431 19.9062 12.0315 29.5859 15.6409 33.5234C16.1331 34.0703 16.7893 34.3437 17.5002 34.3437C18.2112 34.3437 18.8674 34.0703 19.3596 33.5234C22.969 29.6406 31.3362 19.9062 31.3362 14.0547C31.3362 6.67188 25.1018 0.710938 17.5002 0.710938ZM17.9377 32.2109C17.6643 32.4844 17.2815 32.4844 17.0627 32.2109C14.3831 29.3125 5.57837 19.3594 5.57837 14.0547C5.57837 7.71094 10.9377 2.625 17.5002 2.625C24.0627 2.625 29.4221 7.76562 29.4221 14.0547C29.4221 19.3594 20.6174 29.2578 17.9377 32.2109Z" fill="#3056D3"/>
<path id="Vector_2" d="M17.5002 8.58594C14.2737 8.58594 11.594 11.2109 11.594 14.4922C11.594 17.7188 14.219 20.3984 17.5002 20.3984C20.7815 20.3984 23.4065 17.7734 23.4065 14.4922C23.4065 11.2109 20.7268 8.58594 17.5002 8.58594ZM17.5002 18.4297C15.3127 18.4297 13.5081 16.625 13.5081 14.4375C13.5081 12.25 15.3127 10.4453 17.5002 10.4453C19.6877 10.4453 21.4924 12.25 21.4924 14.4375C21.4924 16.625 19.6877 18.4297 17.5002 18.4297Z" fill="#3056D3"/>
</g>
</g>
</svg>
