<svg width="99" height="17" viewBox="0 0 99 17" fill="none" xmlns="http://www.w3.org/2000/svg">
<g id="Review">
<path id="Star 1" d="M9.09815 0.360352L11.1054 6.06469H17.601L12.3459 9.59016L14.3532 15.2945L9.09815 11.769L3.84309 15.2945L5.85035 9.59016L0.595291 6.06469H7.0909L9.09815 0.360352Z" fill="#FBB040"/>
<path id="Star 2" d="M29.2139 0.360352L31.2211 6.06469H37.7167L32.4617 9.59016L34.4689 15.2945L29.2139 11.769L23.9588 15.2945L25.9661 9.59016L20.711 6.06469H27.2066L29.2139 0.360352Z" fill="#FBB040"/>
<path id="Star 3" d="M49.3313 0.360352L51.3386 6.06469H57.8342L52.5791 9.59016L54.5864 15.2945L49.3313 11.769L44.0762 15.2945L46.0835 9.59016L40.8284 6.06469H47.324L49.3313 0.360352Z" fill="#FBB040"/>
<path id="Star 4" d="M69.4439 0.360352L71.4511 6.06469H77.9467L72.6917 9.59016L74.6989 15.2945L69.4439 11.769L64.1888 15.2945L66.196 9.59016L60.941 6.06469H67.4366L69.4439 0.360352Z" fill="#FBB040"/>
<path id="Star 5" d="M89.5608 0.360352L91.568 6.06469H98.0637L92.8086 9.59016L94.8158 15.2945L89.5608 11.769L84.3057 15.2945L86.313 9.59016L81.0579 6.06469H87.5535L89.5608 0.360352Z" fill="#FBB040"/>
</g>
</svg>
