<svg width="32" height="32" viewBox="0 0 32 32" fill="none" xmlns="http://www.w3.org/2000/svg">
<path opacity="0.1" fill-rule="evenodd" clip-rule="evenodd" d="M0 16C0 7.16344 7.16344 0 16 0C24.8366 0 32 7.16344 32 16C32 24.8366 24.8366 32 16 32C7.16344 32 0 24.8366 0 16Z" fill="white"/>
<path d="M22.9968 11.411L24.1 10.0959C24.4194 9.73973 24.5065 9.46575 24.5355 9.32877C23.6645 9.82192 22.8516 9.9863 22.329 9.9863H22.1258L22.0097 9.87671C21.3129 9.30137 20.4419 9 19.5129 9C17.4806 9 15.8839 10.589 15.8839 12.4247C15.8839 12.5342 15.8839 12.6986 15.9129 12.8082L16 13.3562L15.3903 13.3288C11.6742 13.2192 8.62581 10.2055 8.13226 9.68493C7.31935 11.0548 7.78387 12.3699 8.27742 13.1918L9.26452 14.726L7.69677 13.9041C7.72581 15.0548 8.19032 15.9589 9.09032 16.6164L9.87419 17.1644L9.09032 17.4658C9.58387 18.863 10.6871 19.4384 11.5 19.6575L12.5742 19.9315L11.5581 20.589C9.93226 21.6849 7.9 21.6027 7 21.5205C8.82903 22.726 11.0065 23 12.5161 23C13.6484 23 14.4903 22.8904 14.6935 22.8082C22.8226 21 23.2 14.1507 23.2 12.7808V12.589L23.3742 12.4795C24.3613 11.6027 24.7677 11.137 25 10.863C24.9129 10.8904 24.7968 10.9452 24.6806 10.9726L22.9968 11.411Z" fill="#CDCED6"/>
</svg>
