<svg width="15" height="12" viewBox="0 0 15 12" fill="none" xmlns="http://www.w3.org/2000/svg">
<path d="M12.7599 2.48249L13.6335 1.44428C13.8864 1.1631 13.9554 0.946802 13.9784 0.838654C13.2887 1.22798 12.6449 1.35776 12.2311 1.35776H12.0701L11.9782 1.27124C11.4264 0.817025 10.7367 0.579102 10.001 0.579102C8.39165 0.579102 7.12717 1.83361 7.12717 3.28278C7.12717 3.3693 7.12717 3.49907 7.15016 3.58559L7.21913 4.01818L6.73633 3.99655C3.79353 3.91003 1.37952 1.5308 0.988675 1.11984C0.344938 2.20131 0.712788 3.23952 1.10363 3.8884L1.88531 5.09965L0.643816 4.45077C0.666806 5.3592 1.03466 6.07297 1.74736 6.59208L2.36811 7.02467L1.74736 7.26259C2.13821 8.36569 3.01185 8.81991 3.65559 8.99294L4.50624 9.20924L3.70157 9.72834C2.41409 10.5935 0.80475 10.5286 0.092041 10.4637C1.54045 11.4154 3.26475 11.6317 4.46026 11.6317C5.35689 11.6317 6.02362 11.5452 6.18455 11.4803C12.6219 10.0528 12.9208 4.64543 12.9208 3.56396V3.41255L13.0587 3.32604C13.8404 2.6339 14.1623 2.2662 14.3462 2.0499C14.2772 2.07153 14.1853 2.11479 14.0933 2.13642L12.7599 2.48249Z" fill="#DDDDDD"/>
</svg>
