<svg width="136" height="36" viewBox="0 0 136 36" fill="none" xmlns="http://www.w3.org/2000/svg">
<g clip-path="url(#clip0_121_54767)">
<path d="M125.184 21.9844L135.934 8.78637H130.657L121.019 20.6173V20.5415L116.652 25.9324L115.701 27.1054C115.674 27.1521 115.648 27.2001 115.62 27.2468L113.982 29.2566C113.679 29.5373 113.358 29.7981 113.02 30.0343C111.583 31.0361 109.866 31.6184 107.999 31.6189V31.6876C106.757 31.6854 105.584 31.4265 104.514 30.9591C102.905 30.2553 101.529 29.0754 100.56 27.5927C99.5918 26.1075 99.0278 24.3327 99.0269 22.4025C99.0269 21.114 99.2781 19.8981 99.7314 18.7888C100.412 17.1242 101.554 15.7026 102.989 14.7006C104.425 13.6993 106.142 13.1173 108.01 13.1165C109.984 13.1173 111.793 13.7678 113.276 14.8773L115.644 11.4988C113.504 9.89221 110.855 8.94246 108.01 8.94301C106.218 8.94301 104.5 9.3199 102.941 10.0019C100.602 11.0246 98.618 12.7288 97.2136 14.8755C95.8101 17.0209 94.9886 19.6221 94.9895 22.4025C94.9895 22.4484 94.9932 22.4951 94.9932 22.5415H94.9225C94.9225 23.8286 94.6713 25.0453 94.2171 26.1546C93.5362 27.818 92.3956 29.2405 90.9612 30.242C89.5247 31.2433 87.807 31.8257 85.94 31.8268C84.6934 31.8261 83.5173 31.5669 82.4435 31.0973C80.8344 30.3946 79.4587 29.2143 78.4889 27.7311C78.0356 27.036 77.6713 26.2756 77.412 25.4665C77.2449 25.382 77.0645 25.2869 76.8734 25.1816C75.9533 24.6722 74.8001 23.929 73.8543 22.9535C73.4581 22.5437 73.103 22.139 72.7844 21.7473C72.8053 22.0084 72.8176 22.2731 72.8176 22.5415C72.8176 23.8286 72.567 25.0453 72.1125 26.1546C71.4326 27.818 70.2905 29.2405 68.8561 30.242C67.4196 31.2433 65.7018 31.8257 63.835 31.8268C62.5886 31.8261 61.4123 31.5669 60.3385 31.0973C58.729 30.3946 57.3536 29.2143 56.3848 27.7311C55.4155 26.2465 54.852 24.4706 54.8517 22.5415C54.8517 21.2536 55.103 20.0368 55.5567 18.9271C56.2367 17.2635 57.3787 15.8419 58.8133 14.8399C60.2498 13.8386 61.9668 13.2558 63.835 13.2554C65.0804 13.2554 66.2571 13.5156 67.3309 13.9844C68.9405 14.6878 70.3156 15.8677 71.2848 17.3506C71.3068 17.3844 71.3274 17.4184 71.3486 17.4527L71.3548 17.4503L71.3551 17.4532L71.3612 17.4685C71.3616 17.4709 71.3637 17.4748 71.3647 17.4781C71.402 17.5373 71.4367 17.5991 71.4727 17.6586C71.5633 17.8692 71.7437 18.2683 72.0289 18.789C72.0576 18.8411 72.0882 18.8959 72.1191 18.9508C72.1424 19.0086 72.1685 19.065 72.1904 19.1232C72.4553 19.5693 72.7926 20.0821 73.2093 20.6318C73.2321 20.6621 73.253 20.6916 73.2762 20.7215C73.6405 21.2058 74.0689 21.711 74.5594 22.2062C74.5624 22.2099 74.5653 22.2128 74.5679 22.2156C74.5718 22.2197 74.5758 22.2229 74.5793 22.227C74.6571 22.3056 74.7356 22.3826 74.817 22.46C74.8489 22.4897 74.8801 22.5196 74.9121 22.5491C75.426 23.0316 76.0023 23.4981 76.6555 23.9173C77.3894 24.3887 78.2165 24.7981 79.1322 25.0924C80.0482 25.3876 81.0527 25.5664 82.1262 25.5834H82.1275C82.2201 25.585 82.3107 25.586 82.4009 25.586C84.131 25.5864 85.6823 25.3069 87.0444 24.8089C88.0667 24.4362 88.9796 23.9425 89.7808 23.3704C90.983 22.5109 91.9314 21.4805 92.6703 20.4247C93.4092 19.3668 93.9414 18.2826 94.3295 17.282C94.626 16.5161 94.7783 15.7552 94.7783 15.0266C94.7783 14.6074 94.7284 14.2026 94.635 13.8254C94.4727 13.165 94.1826 12.6008 93.8598 12.1569C93.3721 11.4879 92.8262 11.0712 92.4019 10.8007C91.9731 10.5316 91.6539 10.4072 91.5587 10.3717L91.5515 10.3952C89.8504 9.55473 87.9437 9.08212 85.94 9.08249C84.1474 9.08212 82.4297 9.45846 80.8706 10.1407C79.3448 10.8085 77.9715 11.7663 76.8096 12.9474V0.0224609H72.7733V11.2807C73.0199 11.5248 73.2762 11.7895 73.5422 12.0785C74.5633 13.1881 75.2248 14.2604 75.8055 15.2466C76.3872 16.2356 76.8895 17.1318 77.5951 17.9498C77.7023 18.0751 77.8162 18.1983 77.9349 18.3207C78.6285 16.9183 79.6608 15.718 80.9186 14.8399C82.3539 13.8386 84.0721 13.2558 85.94 13.2554C87.5775 13.2558 89.098 13.7037 90.4188 14.49L90.4346 14.4611C90.521 14.5309 90.5999 14.6116 90.6439 14.681C90.6765 14.7301 90.6974 14.7724 90.7128 14.8213C90.7273 14.87 90.7409 14.9269 90.7409 15.0266C90.7409 15.1604 90.7155 15.3821 90.5808 15.732C90.3272 16.3874 89.992 17.0787 89.5629 17.7352C89.2411 18.2276 88.8665 18.701 88.4345 19.1323C87.7837 19.7796 87.0073 20.3354 86.033 20.7429C85.059 21.1496 83.8793 21.4121 82.4009 21.4125C82.3316 21.4125 82.2627 21.4121 82.1937 21.4111H82.1927C81.582 21.4004 81.0321 21.3118 80.5213 21.1656C79.6306 20.9096 78.8567 20.474 78.1768 19.9387C77.9392 19.7519 77.7148 19.5513 77.5026 19.344C77.5026 19.3429 77.5029 19.3404 77.5043 19.3384C77.4023 19.2413 77.3047 19.143 77.2093 19.0451C76.6511 18.4501 76.1951 17.8208 75.8605 17.2788C75.6051 16.8662 75.3423 16.5225 75.2235 16.278C75.1643 16.1551 75.0462 15.9646 75.0462 15.9646C74.4423 14.9351 73.8145 13.8889 72.8114 12.7977C72.7982 12.7832 72.7851 12.7713 72.7733 12.7567V12.7574C72.2577 12.2546 71.7051 11.793 71.1156 11.3816C69.0401 9.93126 66.5243 9.08138 63.835 9.08249C62.0425 9.08212 60.3252 9.45846 58.7658 10.1407C56.4266 11.1641 54.4425 12.8681 53.0389 15.0145C51.6356 17.1599 50.8134 19.7606 50.8142 22.5415C50.8134 24.3937 51.1781 26.1695 51.838 27.7803C52.8277 30.1987 54.4761 32.249 56.5533 33.6999C58.6289 35.1513 61.1448 36.0006 63.835 36.0001C65.6269 36.0003 67.3449 35.6233 68.9038 34.941C71.243 33.918 73.2266 32.2142 74.6307 30.0677C74.7186 29.9322 74.8046 29.7959 74.888 29.6569C75.8582 31.2637 77.1436 32.6417 78.6576 33.6999C80.7336 35.1513 83.2494 36.0006 85.94 36.0001C87.7312 36.0003 89.4493 35.6233 91.0084 34.941C93.3458 33.918 95.3314 32.2142 96.734 30.0677C96.8319 29.919 96.9262 29.7678 97.0168 29.6139C97.9806 31.1792 99.2436 32.524 100.73 33.5609C102.805 35.0118 105.32 35.8611 108.01 35.8609C109.801 35.8611 111.521 35.4844 113.078 34.8023C114.536 34.1653 115.855 33.2635 116.982 32.1553V35.9127H121.019V27.0967L122.534 25.238L130.823 35.9127H136L125.184 21.9844ZM121.019 0.0224609H116.982V22.3378C116.982 22.9431 116.925 23.5321 116.817 24.1029L121.019 18.9164V0.0224609Z" fill="#252F3F"/>
<path d="M23.1329 9.59539V20.532C23.1329 25.6268 20.1068 28.7041 15.5195 28.7041C10.9318 28.7041 7.71114 25.6268 7.71114 20.532V0H0V20.532C0 29.8646 6.05117 35.6661 15.5195 35.6661C24.9385 35.6661 30.8441 29.8646 30.8441 20.532V0H30.7086C26.642 1.34964 23.6083 5.07443 23.1329 9.59539Z" fill="url(#paint0_linear_121_54767)"/>
<path d="M37.4452 0H37.3127V35.3135H45.024V9.60249C44.9512 5.67821 41.5141 1.35051 37.4452 0Z" fill="url(#paint1_linear_121_54767)"/>
<path d="M23.1329 9.59539V20.532C23.1329 20.5386 23.1325 20.5451 23.1325 20.5524C23.1343 20.6611 23.14 20.769 23.14 20.8786C23.14 28.2441 17.7733 34.3107 10.8625 35.1373C12.3008 35.4836 13.8565 35.6661 15.5196 35.6661C24.9386 35.6661 30.8441 29.8646 30.8441 20.532V0H30.7087C26.6421 1.34964 23.6084 5.07443 23.1329 9.59539Z" fill="url(#paint2_linear_121_54767)"/>
<path d="M7.71114 9.61311V0H0V0.00155815C4.09975 1.35363 7.17188 5.07755 7.71114 9.61311Z" fill="url(#paint3_linear_121_54767)"/>
<path d="M37.3127 24.8486V35.3134H44.9299C40.6822 33.764 37.5845 29.6989 37.3127 24.8486Z" fill="url(#paint4_linear_121_54767)"/>
</g>
<defs>
<linearGradient id="paint0_linear_121_54767" x1="26.3893" y1="32.2188" x2="5.28104" y2="-3.15163" gradientUnits="userSpaceOnUse">
<stop stop-color="#2535C5"/>
<stop offset="0.169697" stop-color="#36409B"/>
<stop offset="0.575758" stop-color="#475BC6"/>
<stop offset="1" stop-color="#7075E4"/>
</linearGradient>
<linearGradient id="paint1_linear_121_54767" x1="41.1684" y1="0" x2="41.1684" y2="35.3136" gradientUnits="userSpaceOnUse">
<stop stop-color="#375AD8"/>
<stop offset="0.472727" stop-color="#3C56DD"/>
<stop offset="1" stop-color="#2A1A8F"/>
</linearGradient>
<linearGradient id="paint2_linear_121_54767" x1="20.8532" y1="0" x2="20.8532" y2="35.6663" gradientUnits="userSpaceOnUse">
<stop stop-color="#233593"/>
<stop offset="0.472727" stop-color="#4957D7"/>
<stop offset="0.890909" stop-color="#5465FF"/>
<stop offset="1" stop-color="#6A67FF"/>
</linearGradient>
<linearGradient id="paint3_linear_121_54767" x1="2.91443" y1="6.04283" x2="7.87646" y2="-0.0571855" gradientUnits="userSpaceOnUse">
<stop stop-color="#3A4A9C"/>
<stop offset="0.327273" stop-color="#475BC6"/>
<stop offset="1" stop-color="#7090E4"/>
</linearGradient>
<linearGradient id="paint4_linear_121_54767" x1="41.4115" y1="29.7191" x2="36.6187" y2="35.3149" gradientUnits="userSpaceOnUse">
<stop stop-color="#2D3792"/>
<stop offset="0.193939" stop-color="#3F2BB8"/>
<stop offset="1" stop-color="#3C38FF"/>
</linearGradient>
<clipPath id="clip0_121_54767">
<rect width="136" height="36" fill="white"/>
</clipPath>
</defs>
</svg>
