<svg width="134" height="106" viewBox="0 0 134 106" fill="none" xmlns="http://www.w3.org/2000/svg">
<circle cx="1.66667" cy="104" r="1.66667" transform="rotate(-90 1.66667 104)" fill="white"/>
<circle cx="16.3334" cy="104" r="1.66667" transform="rotate(-90 16.3334 104)" fill="white"/>
<circle cx="30.9999" cy="104" r="1.66667" transform="rotate(-90 30.9999 104)" fill="white"/>
<circle cx="45.6667" cy="104" r="1.66667" transform="rotate(-90 45.6667 104)" fill="white"/>
<circle cx="60.3334" cy="104" r="1.66667" transform="rotate(-90 60.3334 104)" fill="white"/>
<circle cx="88.6667" cy="104" r="1.66667" transform="rotate(-90 88.6667 104)" fill="white"/>
<circle cx="117.667" cy="104" r="1.66667" transform="rotate(-90 117.667 104)" fill="white"/>
<circle cx="74.6667" cy="104" r="1.66667" transform="rotate(-90 74.6667 104)" fill="white"/>
<circle cx="103" cy="104" r="1.66667" transform="rotate(-90 103 104)" fill="white"/>
<circle cx="132" cy="104" r="1.66667" transform="rotate(-90 132 104)" fill="white"/>
<circle cx="1.66667" cy="89.3333" r="1.66667" transform="rotate(-90 1.66667 89.3333)" fill="white"/>
<circle cx="16.3334" cy="89.3333" r="1.66667" transform="rotate(-90 16.3334 89.3333)" fill="white"/>
<circle cx="30.9999" cy="89.3333" r="1.66667" transform="rotate(-90 30.9999 89.3333)" fill="white"/>
<circle cx="45.6667" cy="89.3333" r="1.66667" transform="rotate(-90 45.6667 89.3333)" fill="white"/>
<circle cx="60.3334" cy="89.3338" r="1.66667" transform="rotate(-90 60.3334 89.3338)" fill="white"/>
<circle cx="88.6667" cy="89.3338" r="1.66667" transform="rotate(-90 88.6667 89.3338)" fill="white"/>
<circle cx="117.667" cy="89.3338" r="1.66667" transform="rotate(-90 117.667 89.3338)" fill="white"/>
<circle cx="74.6667" cy="89.3338" r="1.66667" transform="rotate(-90 74.6667 89.3338)" fill="white"/>
<circle cx="103" cy="89.3338" r="1.66667" transform="rotate(-90 103 89.3338)" fill="white"/>
<circle cx="132" cy="89.3338" r="1.66667" transform="rotate(-90 132 89.3338)" fill="white"/>
<circle cx="1.66667" cy="74.6673" r="1.66667" transform="rotate(-90 1.66667 74.6673)" fill="white"/>
<circle cx="1.66667" cy="31.0003" r="1.66667" transform="rotate(-90 1.66667 31.0003)" fill="white"/>
<circle cx="16.3334" cy="74.6668" r="1.66667" transform="rotate(-90 16.3334 74.6668)" fill="white"/>
<circle cx="16.3334" cy="31.0003" r="1.66667" transform="rotate(-90 16.3334 31.0003)" fill="white"/>
<circle cx="30.9999" cy="74.6668" r="1.66667" transform="rotate(-90 30.9999 74.6668)" fill="white"/>
<circle cx="30.9999" cy="31.0003" r="1.66667" transform="rotate(-90 30.9999 31.0003)" fill="white"/>
<circle cx="45.6667" cy="74.6668" r="1.66667" transform="rotate(-90 45.6667 74.6668)" fill="white"/>
<circle cx="45.6667" cy="31.0003" r="1.66667" transform="rotate(-90 45.6667 31.0003)" fill="white"/>
<circle cx="60.3334" cy="74.6668" r="1.66667" transform="rotate(-90 60.3334 74.6668)" fill="white"/>
<circle cx="60.3334" cy="30.9998" r="1.66667" transform="rotate(-90 60.3334 30.9998)" fill="white"/>
<circle cx="88.6667" cy="74.6668" r="1.66667" transform="rotate(-90 88.6667 74.6668)" fill="white"/>
<circle cx="88.6667" cy="30.9998" r="1.66667" transform="rotate(-90 88.6667 30.9998)" fill="white"/>
<circle cx="117.667" cy="74.6668" r="1.66667" transform="rotate(-90 117.667 74.6668)" fill="white"/>
<circle cx="117.667" cy="30.9998" r="1.66667" transform="rotate(-90 117.667 30.9998)" fill="white"/>
<circle cx="74.6667" cy="74.6668" r="1.66667" transform="rotate(-90 74.6667 74.6668)" fill="white"/>
<circle cx="74.6667" cy="30.9998" r="1.66667" transform="rotate(-90 74.6667 30.9998)" fill="white"/>
<circle cx="103" cy="74.6668" r="1.66667" transform="rotate(-90 103 74.6668)" fill="white"/>
<circle cx="103" cy="30.9998" r="1.66667" transform="rotate(-90 103 30.9998)" fill="white"/>
<circle cx="132" cy="74.6668" r="1.66667" transform="rotate(-90 132 74.6668)" fill="white"/>
<circle cx="132" cy="30.9998" r="1.66667" transform="rotate(-90 132 30.9998)" fill="white"/>
<circle cx="1.66667" cy="60.0003" r="1.66667" transform="rotate(-90 1.66667 60.0003)" fill="white"/>
<circle cx="1.66667" cy="16.3333" r="1.66667" transform="rotate(-90 1.66667 16.3333)" fill="white"/>
<circle cx="16.3334" cy="60.0003" r="1.66667" transform="rotate(-90 16.3334 60.0003)" fill="white"/>
<circle cx="16.3334" cy="16.3333" r="1.66667" transform="rotate(-90 16.3334 16.3333)" fill="white"/>
<circle cx="30.9999" cy="60.0003" r="1.66667" transform="rotate(-90 30.9999 60.0003)" fill="white"/>
<circle cx="30.9999" cy="16.3333" r="1.66667" transform="rotate(-90 30.9999 16.3333)" fill="white"/>
<circle cx="45.6667" cy="60.0003" r="1.66667" transform="rotate(-90 45.6667 60.0003)" fill="white"/>
<circle cx="45.6667" cy="16.3333" r="1.66667" transform="rotate(-90 45.6667 16.3333)" fill="white"/>
<circle cx="60.3334" cy="60.0003" r="1.66667" transform="rotate(-90 60.3334 60.0003)" fill="white"/>
<circle cx="60.3334" cy="16.3333" r="1.66667" transform="rotate(-90 60.3334 16.3333)" fill="white"/>
<circle cx="88.6667" cy="60.0003" r="1.66667" transform="rotate(-90 88.6667 60.0003)" fill="white"/>
<circle cx="88.6667" cy="16.3333" r="1.66667" transform="rotate(-90 88.6667 16.3333)" fill="white"/>
<circle cx="117.667" cy="60.0003" r="1.66667" transform="rotate(-90 117.667 60.0003)" fill="white"/>
<circle cx="117.667" cy="16.3333" r="1.66667" transform="rotate(-90 117.667 16.3333)" fill="white"/>
<circle cx="74.6667" cy="60.0003" r="1.66667" transform="rotate(-90 74.6667 60.0003)" fill="white"/>
<circle cx="74.6667" cy="16.3333" r="1.66667" transform="rotate(-90 74.6667 16.3333)" fill="white"/>
<circle cx="103" cy="60.0003" r="1.66667" transform="rotate(-90 103 60.0003)" fill="white"/>
<circle cx="103" cy="16.3333" r="1.66667" transform="rotate(-90 103 16.3333)" fill="white"/>
<circle cx="132" cy="60.0003" r="1.66667" transform="rotate(-90 132 60.0003)" fill="white"/>
<circle cx="132" cy="16.3333" r="1.66667" transform="rotate(-90 132 16.3333)" fill="white"/>
<circle cx="1.66667" cy="45.3333" r="1.66667" transform="rotate(-90 1.66667 45.3333)" fill="white"/>
<circle cx="1.66667" cy="1.66683" r="1.66667" transform="rotate(-90 1.66667 1.66683)" fill="white"/>
<circle cx="16.3334" cy="45.3333" r="1.66667" transform="rotate(-90 16.3334 45.3333)" fill="white"/>
<circle cx="16.3334" cy="1.66683" r="1.66667" transform="rotate(-90 16.3334 1.66683)" fill="white"/>
<circle cx="30.9999" cy="45.3333" r="1.66667" transform="rotate(-90 30.9999 45.3333)" fill="white"/>
<circle cx="30.9999" cy="1.66683" r="1.66667" transform="rotate(-90 30.9999 1.66683)" fill="white"/>
<circle cx="45.6667" cy="45.3333" r="1.66667" transform="rotate(-90 45.6667 45.3333)" fill="white"/>
<circle cx="45.6667" cy="1.66683" r="1.66667" transform="rotate(-90 45.6667 1.66683)" fill="white"/>
<circle cx="60.3334" cy="45.3338" r="1.66667" transform="rotate(-90 60.3334 45.3338)" fill="white"/>
<circle cx="60.3334" cy="1.66707" r="1.66667" transform="rotate(-90 60.3334 1.66707)" fill="white"/>
<circle cx="88.6667" cy="45.3338" r="1.66667" transform="rotate(-90 88.6667 45.3338)" fill="white"/>
<circle cx="88.6667" cy="1.66707" r="1.66667" transform="rotate(-90 88.6667 1.66707)" fill="white"/>
<circle cx="117.667" cy="45.3338" r="1.66667" transform="rotate(-90 117.667 45.3338)" fill="white"/>
<circle cx="117.667" cy="1.66707" r="1.66667" transform="rotate(-90 117.667 1.66707)" fill="white"/>
<circle cx="74.6667" cy="45.3338" r="1.66667" transform="rotate(-90 74.6667 45.3338)" fill="white"/>
<circle cx="74.6667" cy="1.66707" r="1.66667" transform="rotate(-90 74.6667 1.66707)" fill="white"/>
<circle cx="103" cy="45.3338" r="1.66667" transform="rotate(-90 103 45.3338)" fill="white"/>
<circle cx="103" cy="1.66707" r="1.66667" transform="rotate(-90 103 1.66707)" fill="white"/>
<circle cx="132" cy="45.3338" r="1.66667" transform="rotate(-90 132 45.3338)" fill="white"/>
<circle cx="132" cy="1.66707" r="1.66667" transform="rotate(-90 132 1.66707)" fill="white"/>
</svg>
