<svg width="71" height="82" viewBox="0 0 71 82" fill="none" xmlns="http://www.w3.org/2000/svg">
<g id="Dotted Shape">
<circle id="Ellipse 1" cx="1.29337" cy="80.7066" r="1.29337" transform="rotate(-90 1.29337 80.7066)" fill="#3056D3"/>
<circle id="Ellipse 6" cx="12.6745" cy="80.7066" r="1.29337" transform="rotate(-90 12.6745 80.7066)" fill="#3056D3"/>
<circle id="Ellipse 11" cx="24.0573" cy="80.7066" r="1.29337" transform="rotate(-90 24.0573 80.7066)" fill="#3056D3"/>
<circle id="Ellipse 16" cx="35.4377" cy="80.7066" r="1.29337" transform="rotate(-90 35.4377 80.7066)" fill="#3056D3"/>
<circle id="Ellipse 21" cx="46.8197" cy="80.7066" r="1.29337" transform="rotate(-90 46.8197 80.7066)" fill="#3056D3"/>
<circle id="Ellipse 31" cx="68.8073" cy="80.7066" r="1.29337" transform="rotate(-90 68.8073 80.7066)" fill="#3056D3"/>
<circle id="Ellipse 26" cx="57.9443" cy="80.7066" r="1.29337" transform="rotate(-90 57.9443 80.7066)" fill="#3056D3"/>
<circle id="Ellipse 2" cx="1.29337" cy="69.3248" r="1.29337" transform="rotate(-90 1.29337 69.3248)" fill="#3056D3"/>
<circle id="Ellipse 7" cx="12.6745" cy="69.3248" r="1.29337" transform="rotate(-90 12.6745 69.3248)" fill="#3056D3"/>
<circle id="Ellipse 12" cx="24.0573" cy="69.3248" r="1.29337" transform="rotate(-90 24.0573 69.3248)" fill="#3056D3"/>
<circle id="Ellipse 17" cx="35.4377" cy="69.3248" r="1.29337" transform="rotate(-90 35.4377 69.3248)" fill="#3056D3"/>
<circle id="Ellipse 22" cx="46.8197" cy="69.3253" r="1.29337" transform="rotate(-90 46.8197 69.3253)" fill="#3056D3"/>
<circle id="Ellipse 33" cx="68.8073" cy="69.3253" r="1.29337" transform="rotate(-90 68.8073 69.3253)" fill="#3056D3"/>
<circle id="Ellipse 27" cx="57.9433" cy="69.3253" r="1.29337" transform="rotate(-90 57.9433 69.3253)" fill="#3056D3"/>
<circle id="Ellipse 3" cx="1.29337" cy="57.9434" r="1.29337" transform="rotate(-90 1.29337 57.9434)" fill="#3056D3"/>
<circle id="Ellipse 51" cx="1.29337" cy="24.0567" r="1.29337" transform="rotate(-90 1.29337 24.0567)" fill="#3056D3"/>
<circle id="Ellipse 8" cx="12.6745" cy="57.9434" r="1.29337" transform="rotate(-90 12.6745 57.9434)" fill="#3056D3"/>
<circle id="Ellipse 52" cx="12.6745" cy="24.0567" r="1.29337" transform="rotate(-90 12.6745 24.0567)" fill="#3056D3"/>
<circle id="Ellipse 13" cx="24.0573" cy="57.9434" r="1.29337" transform="rotate(-90 24.0573 57.9434)" fill="#3056D3"/>
<circle id="Ellipse 53" cx="24.0573" cy="24.0567" r="1.29337" transform="rotate(-90 24.0573 24.0567)" fill="#3056D3"/>
<circle id="Ellipse 18" cx="35.4377" cy="57.9434" r="1.29337" transform="rotate(-90 35.4377 57.9434)" fill="#3056D3"/>
<circle id="Ellipse 54" cx="35.4377" cy="24.0567" r="1.29337" transform="rotate(-90 35.4377 24.0567)" fill="#3056D3"/>
<circle id="Ellipse 23" cx="46.8197" cy="57.943" r="1.29337" transform="rotate(-90 46.8197 57.943)" fill="#3056D3"/>
<circle id="Ellipse 55" cx="46.8197" cy="24.0567" r="1.29337" transform="rotate(-90 46.8197 24.0567)" fill="#3056D3"/>
<circle id="Ellipse 35" cx="68.8073" cy="57.943" r="1.29337" transform="rotate(-90 68.8073 57.943)" fill="#3056D3"/>
<circle id="Ellipse 56" cx="68.8073" cy="24.0567" r="1.29337" transform="rotate(-90 68.8073 24.0567)" fill="#3056D3"/>
<circle id="Ellipse 28" cx="57.9433" cy="57.943" r="1.29337" transform="rotate(-90 57.9433 57.943)" fill="#3056D3"/>
<circle id="Ellipse 58" cx="57.944" cy="24.0567" r="1.29337" transform="rotate(-90 57.944 24.0567)" fill="#3056D3"/>
<circle id="Ellipse 4" cx="1.29337" cy="46.5616" r="1.29337" transform="rotate(-90 1.29337 46.5616)" fill="#3056D3"/>
<circle id="Ellipse 61" cx="1.29337" cy="12.6749" r="1.29337" transform="rotate(-90 1.29337 12.6749)" fill="#3056D3"/>
<circle id="Ellipse 9" cx="12.6745" cy="46.5616" r="1.29337" transform="rotate(-90 12.6745 46.5616)" fill="#3056D3"/>
<circle id="Ellipse 62" cx="12.6745" cy="12.6749" r="1.29337" transform="rotate(-90 12.6745 12.6749)" fill="#3056D3"/>
<circle id="Ellipse 14" cx="24.0573" cy="46.5616" r="1.29337" transform="rotate(-90 24.0573 46.5616)" fill="#3056D3"/>
<circle id="Ellipse 63" cx="24.0573" cy="12.6749" r="1.29337" transform="rotate(-90 24.0573 12.6749)" fill="#3056D3"/>
<circle id="Ellipse 19" cx="35.4377" cy="46.5616" r="1.29337" transform="rotate(-90 35.4377 46.5616)" fill="#3056D3"/>
<circle id="Ellipse 64" cx="35.4377" cy="12.6754" r="1.29337" transform="rotate(-90 35.4377 12.6754)" fill="#3056D3"/>
<circle id="Ellipse 24" cx="46.8197" cy="46.5616" r="1.29337" transform="rotate(-90 46.8197 46.5616)" fill="#3056D3"/>
<circle id="Ellipse 65" cx="46.8197" cy="12.6754" r="1.29337" transform="rotate(-90 46.8197 12.6754)" fill="#3056D3"/>
<circle id="Ellipse 37" cx="68.8073" cy="46.5616" r="1.29337" transform="rotate(-90 68.8073 46.5616)" fill="#3056D3"/>
<circle id="Ellipse 66" cx="68.8073" cy="12.6754" r="1.29337" transform="rotate(-90 68.8073 12.6754)" fill="#3056D3"/>
<circle id="Ellipse 29" cx="57.9433" cy="46.5616" r="1.29337" transform="rotate(-90 57.9433 46.5616)" fill="#3056D3"/>
<circle id="Ellipse 68" cx="57.944" cy="12.6754" r="1.29337" transform="rotate(-90 57.944 12.6754)" fill="#3056D3"/>
<circle id="Ellipse 5" cx="1.29337" cy="35.1798" r="1.29337" transform="rotate(-90 1.29337 35.1798)" fill="#3056D3"/>
<circle id="Ellipse 71" cx="1.29337" cy="1.29305" r="1.29337" transform="rotate(-90 1.29337 1.29305)" fill="#3056D3"/>
<circle id="Ellipse 10" cx="12.6745" cy="35.1798" r="1.29337" transform="rotate(-90 12.6745 35.1798)" fill="#3056D3"/>
<circle id="Ellipse 72" cx="12.6745" cy="1.29305" r="1.29337" transform="rotate(-90 12.6745 1.29305)" fill="#3056D3"/>
<circle id="Ellipse 15" cx="24.0573" cy="35.1798" r="1.29337" transform="rotate(-90 24.0573 35.1798)" fill="#3056D3"/>
<circle id="Ellipse 73" cx="24.0573" cy="1.29354" r="1.29337" transform="rotate(-90 24.0573 1.29354)" fill="#3056D3"/>
<circle id="Ellipse 20" cx="35.4377" cy="35.1798" r="1.29337" transform="rotate(-90 35.4377 35.1798)" fill="#3056D3"/>
<circle id="Ellipse 74" cx="35.4377" cy="1.29354" r="1.29337" transform="rotate(-90 35.4377 1.29354)" fill="#3056D3"/>
<circle id="Ellipse 25" cx="46.8197" cy="35.1798" r="1.29337" transform="rotate(-90 46.8197 35.1798)" fill="#3056D3"/>
<circle id="Ellipse 75" cx="46.8197" cy="1.29354" r="1.29337" transform="rotate(-90 46.8197 1.29354)" fill="#3056D3"/>
<circle id="Ellipse 39" cx="68.8073" cy="35.1798" r="1.29337" transform="rotate(-90 68.8073 35.1798)" fill="#3056D3"/>
<circle id="Ellipse 76" cx="68.8073" cy="1.29354" r="1.29337" transform="rotate(-90 68.8073 1.29354)" fill="#3056D3"/>
<circle id="Ellipse 30" cx="57.944" cy="35.1798" r="1.29337" transform="rotate(-90 57.944 35.1798)" fill="#3056D3"/>
<circle id="Ellipse 78" cx="57.9443" cy="1.29354" r="1.29337" transform="rotate(-90 57.9443 1.29354)" fill="#3056D3"/>
</g>
</svg>
