<svg width="129" height="44" viewBox="0 0 129 44" fill="none" xmlns="http://www.w3.org/2000/svg">
<path d="M1.05594 14.7503L13.5937 0V22H4.40847C0.657859 22 -1.37313 17.6081 1.05594 14.7503Z" fill="white"/>
<path d="M26.1306 29.2497L13.5928 44L13.5928 22L22.778 22C26.5286 22 28.5596 26.3919 26.1306 29.2497Z" fill="white"/>
<path d="M57.0462 15.1975H61.7435C61.6514 10.6448 57.7698 7.42114 52.033 7.42114C46.3751 7.42114 42.1251 10.6054 42.1383 15.3685C42.1383 19.2369 44.8883 21.4606 49.3225 22.6054L52.3883 23.3948C55.2962 24.1317 57.2172 25.0396 57.2304 27.1317C57.2172 29.4343 55.033 30.9738 51.8488 30.9738C48.7962 30.9738 46.4277 29.6054 46.2304 26.7764H41.4277C41.6251 32.1317 45.6119 35.1448 51.8883 35.1448C58.3488 35.1448 62.0988 31.9211 62.1119 27.1711C62.0988 22.5001 58.2435 20.3685 54.1909 19.408L51.6646 18.7764C49.4541 18.2501 47.0593 17.3159 47.0856 15.0659C47.0988 13.0396 48.9146 11.5527 51.9672 11.5527C54.8751 11.5527 56.7962 12.908 57.0462 15.1975Z" fill="white"/>
<path d="M72.0692 35.1448C75.2402 35.1448 77.135 33.658 78.0034 31.9606H78.1613V34.7369H82.7402V21.2106C82.7402 15.8685 78.385 14.2632 74.5297 14.2632C70.2797 14.2632 67.0166 16.158 65.9639 19.8422L70.4113 20.4738C70.885 19.0922 72.2271 17.908 74.556 17.908C76.7666 17.908 77.9771 19.0396 77.9771 21.0264V21.1054C77.9771 22.4738 76.5429 22.5396 72.9771 22.9211C69.056 23.3422 65.306 24.5132 65.306 29.0659C65.306 33.0396 68.2139 35.1448 72.0692 35.1448ZM73.306 31.6448C71.3192 31.6448 69.8981 30.7369 69.8981 28.9869C69.8981 27.158 71.4902 26.3948 73.6218 26.0922C74.8718 25.9211 77.3718 25.6054 77.9902 25.1054V27.4869C77.9902 29.7369 76.1744 31.6448 73.306 31.6448Z" fill="white"/>
<path d="M93.3455 35.1448C96.5166 35.1448 98.4113 33.658 99.2797 31.9606H99.4376V34.7369H104.017V21.2106C104.017 15.8685 99.6613 14.2632 95.806 14.2632C91.556 14.2632 88.2929 16.158 87.2402 19.8422L91.6876 20.4738C92.1613 19.0922 93.5034 17.908 95.8323 17.908C98.0429 17.908 99.2534 19.0396 99.2534 21.0264V21.1054C99.2534 22.4738 97.8192 22.5396 94.2534 22.9211C90.3323 23.3422 86.5823 24.5132 86.5823 29.0659C86.5823 33.0396 89.4902 35.1448 93.3455 35.1448ZM94.5823 31.6448C92.5955 31.6448 91.1744 30.7369 91.1744 28.9869C91.1744 27.158 92.7666 26.3948 94.8981 26.0922C96.1481 25.9211 98.6481 25.6054 99.2666 25.1054V27.4869C99.2666 29.7369 97.4508 31.6448 94.5823 31.6448Z" fill="white"/>
<path d="M123.661 15.1975H128.359C128.267 10.6448 124.385 7.42114 118.648 7.42114C112.99 7.42114 108.74 10.6054 108.753 15.3685C108.753 19.2369 111.503 21.4606 115.938 22.6054L119.003 23.3948C121.911 24.1317 123.832 25.0396 123.846 27.1317C123.832 29.4343 121.648 30.9738 118.464 30.9738C115.411 30.9738 113.043 29.6054 112.846 26.7764H108.043C108.24 32.1317 112.227 35.1448 118.503 35.1448C124.964 35.1448 128.714 31.9211 128.727 27.1711C128.714 22.5001 124.859 20.3685 120.806 19.408L118.28 18.7764C116.069 18.2501 113.674 17.3159 113.701 15.0659C113.714 13.0396 115.53 11.5527 118.582 11.5527C121.49 11.5527 123.411 12.908 123.661 15.1975Z" fill="white"/>
</svg>
